# xmcd
#
# Track frame offsets:
#	150
#	16898
#	29834
#	45076
#	61987
#	76764
#	94981
#	112020
#	125455
#	139635
#	155135
#	170186
#	187681
#	202962
#	219232
#	234513
#	251359
#	268234
#
# Disc length: 3773 seconds
#
# Revision: 1
# Processed by: cddbd v1.5.2PL0 Copyright (c) Steve Scherf et al.
# Submitted via: audiograbber 1.82.02
#
DISCID=f30ebb12
DTITLE=Various Artist  - Country Radio - December 2015
DYEAR=2015
DGENRE=Country
TTITLE0=Darius Rucker - Southern Style
TTITLE1=Home Free (Ft. Oak Ridge Boys) - Elvira
TTITLE2=Dave and Whitney - Alibi
TTITLE3=Ryan Kinder - Tonight
TTITLE4=Maddie and Tae - Shut Up and Fish
TTITLE5=Dierks Bentley - Riser
TTITLE6=Brothers Osborne - Stay A Little Longer
TTITLE7=Lindsay Ell - By The Way
TTITLE8=Little Big Town - Pain Killer
TTITLE9=Chris Janson - Power Of Positive Drinkin'
TTITLE10=Jon Pardi - Head Over Boots
TTITLE11=Luke Bryan - Strip It Down
TTITLE12=Kip Moore - Running For You
TTITLE13=Keith Urban - John Cougar, John Deere, John 3-16
TTITLE14=Blackjack Billy - Night Light
TTITLE15=George Strait - Cold Beer Conversation
TTITLE16=Thomas Rhett - Die A Happy Man
TTITLE17=Dylan Scott - Crazy Over Me
EXTD=
EXTT0=
EXTT1=
EXTT2=
EXTT3=
EXTT4=
EXTT5=
EXTT6=
EXTT7=
EXTT8=
EXTT9=
EXTT10=
EXTT11=
EXTT12=
EXTT13=
EXTT14=
EXTT15=
EXTT16=
EXTT17=
PLAYORDER=
